# xmcd
#
# Track frame offsets: 
#        187
#        15477
#        30300
#        43195
#        57932
#        72260
#        87055
#        102395
#        114860
#        128747
#        143670
#        158320
#        173570
#        187787
#        202187
#
# Disc length: 2868 seconds
#
# Revision: 3
# Processed by: cddbd v1.5.1PL0 Copyright (c) Steve Scherf et al.
# Submitted via: ExactAudioCopy v0.90b3
#
DISCID=b30b320f
DTITLE=Billie Holiday - From The Original Decca Masters
DYEAR=1986
DGENRE=Blues
TTITLE0=Ain't Nobody's Business If I Do (08-17-1949)
TTITLE1=Baby, Get Lost (08-17-1949)
TTITLE2=Them There Eyes (08-29-1949)
TTITLE3=Keeps On Rainin' (08-29-1949)
TTITLE4=God Bless The Child (03-08-1949)
TTITLE5=Do Your Duty (09-08-1949)
TTITLE6=You're My Thrill (10-19-1949)
TTITLE7=Gimmie A Pigfoot (And A Bottle Of Beer) - (09-08-1949)
TTITLE8=Crazy, He Calls Me (10-09-1949)
TTITLE9=Now Or Never (09-08-1949)
TTITLE10=Please Tell Me Now (10-19-1949)
TTITLE11=Lover Man (Where Can You Be?) - (10-04-1944)
TTITLE12=Good Morning Heartache (01-22-1946)
TTITLE13=Solitude (02-13-1947)
TTITLE14=This Is Heaven To Me (03-08-1950)
EXTD=more info
EXTT0=Billie Holiday AKA Eleanora Fagan Gough\nPhiladelphia, PA\nRecor
EXTT0=ded with Decca Studio Orchestra featuring Lester Young
EXTT1=Billie Holiday AKA Eleanora Fagan Gough\nPhiladelphia, PA\nRecor
EXTT1=ded with Decca Studio Orchestra featuring Lester Young
EXTT2=Billie Holiday AKA Eleanora Fagan Gough\nPhiladelphia, PA\nRecor
EXTT2=ded with Orchestra conducted by Sy Oliver
EXTT3=Billie Holiday AKA Eleanora Fagan Gough\nPhiladelphia, PA\nRecor
EXTT3=ded with Orchestra conducted by Sy Oliver
EXTT4=Billie Holiday AKA Eleanora Fagan Gough\nPhiladelphia, PA\nRecor
EXTT4=ded with Orchestra and Choir conducted by Gordon Jenkins\n
EXTT5=Billie Holiday AKA Eleanora Fagan Gough\nPhiladelphia,PA\nRecord
EXTT5=ed with Decca Studio Orchestra featuring Buck Clayton
EXTT6=Billie Holiday AKA Eleanora Fagan Gough\nPhiladelphia, PA\nRecor
EXTT6=ded with Orchestra conducted by Gordon Jenkins
EXTT7=Billie Holiday AKA Eleanora Fagan Gough\nPhiladelphia, PA\nRecor
EXTT7=ded with Decca Studio Orchestra featuring Horace Henderson
EXTT8=Billie Holiday AKA Eleanora Fagan Gough\nPhiladelphia, PA\nRecor
EXTT8=ded with Orchestra conducted by Gordon Jenkins\n
EXTT9=Billie Holiday AKA Eleanora Fagan Gough\nPhiladelphia, PA\nRecor
EXTT9=ded with Orchestra conducted by Sy Oliver
EXTT10=Billie Holiday AKA Eleanora Fagan Gough\nPhiladelphia, PA\nReco
EXTT10=rded with Orchestra conducted by Gordon Jenkins
EXTT11=Billie Holiday AKA Eleanora Fagan Gough\nPhiladelphia, PA\nReco
EXTT11=rded with Orchestra conducted by Toots Camarata\n\nOriginally r
EXTT11=ecorded on 33 1/3 RPM glass discs.  These rare original discs w
EXTT11=ere used in the digital transfer.
EXTT12=Billie Holiday AKA Eleanora Fagan Gough\nPhiladelphia, PA\nReco
EXTT12=rded with Decca Studio Orchestra\n\nOriginally recorded on 33 1
EXTT12=/3 RPM glass discs.  These rare original discs were used in the
EXTT12=digital transfer.
EXTT13=Billie Holiday AKA Eleanora Fagan Gough\nPhiladelphia, PA\nReco
EXTT13=rded with Orchestra conducted by Bob Haggart\n\nOriginally reco
EXTT13=rded on 33 1/3 RPM glass discs.  These rare original discs were
EXTT13=used in the digital transfer.
EXTT14=Billie Holiday AKA Eleanora Fagan Gough\nPhiladelphia, PA\nReco
EXTT14=rded with Orchestra and Choir conducted by Gordon Jenkins
PLAYORDER=
